<?xml version="1.0" encoding="UTF-8"?>
<svg version="1.1" xmlns="http://www.w3.org/2000/svg" width="685" height="222">
<path d="M0 0 C10.61121517 7.60890591 12.76240023 27.07920894 15.99609375 38.984375 C17.0018963 42.66367397 18.01160977 46.34188496 19.0234375 50.01953125 C19.26967865 50.91620514 19.5159198 51.81287903 19.7696228 52.73672485 C22.37773471 62.17837245 25.20061854 71.55332691 28.05859375 80.921875 C36.32423561 68.52341222 38.40912011 49.82622492 41.80859375 35.421875 C42.09393478 34.21535782 42.09393478 34.21535782 42.38504028 32.98446655 C42.94188017 30.62080994 43.49357101 28.25602171 44.04296875 25.890625 C44.22008896 25.13397049 44.39720917 24.37731598 44.57969666 23.59773254 C45.4260489 19.92217476 46.19512108 16.25616672 46.81445312 12.53515625 C46.93371155 11.8455481 47.05296997 11.15593994 47.17584229 10.44543457 C47.49001748 8.58184984 47.77774065 6.71385973 48.06347656 4.84570312 C49.05859375 1.921875 49.05859375 1.921875 51.51220703 0.07299805 C61.31061796 -4.35648494 70.62763389 -5.78243501 80.99609375 -2.390625 C86.07534464 -0.35457721 88.60797339 2.02063428 91.05859375 6.921875 C95.32410692 54.92239663 64.88701419 116.43508872 35.41796875 153.29296875 C34.639375 154.16050781 33.86078125 155.02804688 33.05859375 155.921875 C32.39859375 155.921875 31.73859375 155.921875 31.05859375 155.921875 C30.83429688 156.50710937 30.61 157.09234375 30.37890625 157.6953125 C27.25955646 162.95575445 19.90745665 166.66610249 14.12109375 168.359375 C5.117554 169.99805606 -4.02426807 169.90329584 -11.94140625 164.921875 C-16.66617142 160.74410445 -20.78324028 156.29178786 -21.94140625 149.921875 C-22.09351563 149.18066406 -22.245625 148.43945312 -22.40234375 147.67578125 C-21.65122179 143.18814581 -18.38155529 141.01905082 -15.06640625 138.109375 C-14.41542969 137.51189453 -13.76445312 136.91441406 -13.09375 136.29882812 C-8.24158482 131.921875 -8.24158482 131.921875 -5.94140625 131.921875 C-5.69390625 131.344375 -5.44640625 130.766875 -5.19140625 130.171875 C-3.75840637 127.59247521 -2.15715949 125.86065908 0.05859375 123.921875 C0.71859375 123.921875 1.37859375 123.921875 2.05859375 123.921875 C2.32671875 123.344375 2.59484375 122.766875 2.87109375 122.171875 C4.07660178 119.88775452 5.48994898 117.96755969 7.05859375 115.921875 C6.49011719 115.54417969 5.92164063 115.16648437 5.3359375 114.77734375 C-18.75995197 97.60047429 -26.62925522 54.74080869 -33.94140625 27.921875 C-34.20888672 26.96619629 -34.47636719 26.01051758 -34.75195312 25.02587891 C-35.52109182 22.26666434 -36.26682752 19.50230563 -37.00390625 16.734375 C-37.23247314 15.91453125 -37.46104004 15.0946875 -37.6965332 14.25 C-38.55812416 10.8930968 -39.04799818 8.51504687 -38.4296875 5.07421875 C-36.40124854 2.14070204 -34.2850103 1.16707004 -31.06640625 -0.328125 C-30.01710937 -0.82828125 -28.9678125 -1.3284375 -27.88671875 -1.84375 C-18.52381549 -5.76772537 -8.83454995 -4.90610822 0 0 Z " fill="#DB2C59" transform="translate(179.94140625,42.078125)"/>
<path d="M0 0 C9.91023064 7.93191718 13.90879354 19.20893973 15.69921875 31.41015625 C15.7961204 33.52108345 15.84701344 35.63445053 15.86035156 37.74755859 C15.86995911 38.98259125 15.87956665 40.2176239 15.88946533 41.49008179 C15.89431378 42.82541721 15.89859249 44.1607548 15.90234375 45.49609375 C15.90658482 46.51543943 15.90658482 46.51543943 15.91091156 47.55537796 C15.92584933 51.15020377 15.93511351 54.74499 15.93945312 58.33984375 C15.94493644 62.03387002 15.96897668 65.72752749 15.99742508 69.42143822 C16.01613377 72.28007032 16.02126136 75.13861488 16.022789 77.99730301 C16.02724895 80.01569144 16.04585024 82.03403285 16.0647583 84.05233765 C16.04430469 92.51251201 15.68158167 100.08588794 9.44921875 106.47265625 C-0.15818116 115.39506787 -12.7081892 118.49549313 -25.30078125 120.41015625 C-26.18894531 120.59320313 -27.07710937 120.77625 -27.9921875 120.96484375 C-48.12437209 123.67448843 -73.31087962 122.48287177 -90.23828125 110.09765625 C-97.71606664 103.77241026 -102.71401812 96.15540947 -104.30078125 86.41015625 C-105.09533422 73.89594702 -103.77355898 63.11139642 -95.30078125 53.41015625 C-78.69018285 37.68545643 -49.77989615 38.25648007 -28.30078125 37.41015625 C-28.58695313 36.13914063 -28.873125 34.868125 -29.16796875 33.55859375 C-29.32894043 32.84364746 -29.48991211 32.12870117 -29.65576172 31.39208984 C-30.7090033 28.1558237 -32.38992558 27.0554225 -35.30078125 25.41015625 C-41.27403279 23.60383455 -46.70281034 23.05727083 -52.92578125 23.09765625 C-53.79879883 23.10112061 -54.67181641 23.10458496 -55.57128906 23.1081543 C-64.73137124 23.2603738 -73.28844553 24.75681117 -81.86328125 28.09765625 C-87.48963798 30.24590155 -87.48963798 30.24590155 -90.30078125 29.41015625 C-94.5741515 24.18042269 -96.44626045 19.27529275 -96.48828125 12.53515625 C-96.50246094 11.50648437 -96.51664063 10.4778125 -96.53125 9.41796875 C-96.15979605 4.57017989 -94.69629929 1.25701645 -91.17578125 -2.08984375 C-69.69087289 -20.14505114 -21.3216323 -14.73328412 0 0 Z M-41.11328125 67.16015625 C-41.99048828 67.23492187 -42.86769531 67.3096875 -43.77148438 67.38671875 C-49.89490722 67.99127508 -55.58054142 68.86541576 -60.23828125 73.22265625 C-61.71954624 76.27231947 -61.83834321 78.05039401 -61.30078125 81.41015625 C-59.64270065 84.24600045 -57.74375986 86.86045011 -54.578125 88.06640625 C-46.03905426 89.35532259 -36.51304714 89.10038128 -28.30078125 86.41015625 C-27.04644667 82.64715251 -27.19382703 79.13804716 -27.23828125 75.22265625 C-27.24279297 74.47306641 -27.24730469 73.72347656 -27.25195312 72.95117188 C-27.26371771 71.10413242 -27.2816526 69.25713412 -27.30078125 67.41015625 C-32.00332489 66.00106428 -36.29402184 66.67089134 -41.11328125 67.16015625 Z " fill="#DA2C59" transform="translate(666.30078125,45.58984375)"/>
<path d="M0 0 C8.20308004 7.47288162 13.08933887 18.54762896 13.77081299 29.55664062 C13.87676916 33.70679948 13.92101995 37.85261351 13.93359375 42.00390625 C13.94257567 43.54272542 13.95169776 45.08154378 13.96095276 46.62036133 C13.97737479 49.83449414 13.98513102 53.04852359 13.98803711 56.26269531 C13.99342921 60.36496703 14.03117135 64.46625803 14.07678127 68.56825256 C14.1066284 71.74258927 14.11376223 74.91669122 14.11476326 78.09115601 C14.11894656 79.60294104 14.13130441 81.114728 14.15228081 82.62637329 C14.27889966 92.53481389 13.4981243 99.0094744 6.52734375 106.328125 C-3.43046227 113.94517508 -14.22805047 117.0037567 -26.4375 119.19140625 C-27.37625977 119.36414063 -28.31501953 119.536875 -29.28222656 119.71484375 C-50.74135693 122.95596279 -75.41138323 120.65058396 -93.47265625 107.84765625 C-100.2025964 102.17470471 -104.38978438 94.16805543 -106.1875 85.62890625 C-107.08418046 73.29954998 -105.54680981 63.35946978 -98.01171875 53.28515625 C-83.64132104 37.02485512 -54.28163022 37.71036379 -34.4375 36.19140625 C-32.7709514 36.17156806 -31.10394452 36.16419505 -29.4375 36.19140625 C-30.66452907 30.41087098 -30.66452907 30.41087098 -34.01953125 25.73828125 C-45.54942187 19.00623183 -63.10431481 21.2624622 -75.51171875 24.32421875 C-78.06139666 25.07993103 -80.5234695 25.91402424 -83 26.87890625 C-88.38325472 28.93433078 -88.38325472 28.93433078 -91.4375 28.19140625 C-96.71350046 23.16080116 -98.45347017 17.96874241 -98.75 10.69140625 C-98.5803565 4.82373706 -96.95259392 0.74257384 -92.8125 -3.49609375 C-69.31402892 -20.89180657 -22.63862878 -16.79757232 0 0 Z M-42.625 65.94140625 C-43.54603516 66.00328125 -44.46707031 66.06515625 -45.41601562 66.12890625 C-51.24480182 66.62532523 -56.70929757 67.50088606 -61.4375 71.19140625 C-63.08252365 73.82476143 -63.44229493 74.96604466 -63.375 78.12890625 C-62.19192891 81.99360515 -60.55037048 83.65767446 -57.4375 86.19140625 C-49.54322853 89.06858947 -38.24212715 87.84497948 -30.4375 85.19140625 C-29.23254091 84.20733314 -29.23254091 84.20733314 -29.32397461 82.33374023 C-29.32921143 81.54298096 -29.33444824 80.75222168 -29.33984375 79.9375 C-29.34306641 79.08349609 -29.34628906 78.22949219 -29.34960938 77.34960938 C-29.35798828 76.45177734 -29.36636719 75.55394531 -29.375 74.62890625 C-29.37951172 73.72720703 -29.38402344 72.82550781 -29.38867188 71.89648438 C-29.40049775 69.66139311 -29.4169778 67.42643188 -29.4375 65.19140625 C-33.85454403 65.19140625 -38.22465839 65.57948645 -42.625 65.94140625 Z " fill="#DB2C59" transform="translate(110.4375,46.80859375)"/>
<path d="M0 0 C1.20720703 -0.01160156 2.41441406 -0.02320313 3.65820312 -0.03515625 C17.80592228 0.01026179 31.83643881 2.01635192 42.41796875 12.15234375 C46.09912116 17.0296129 46.2839975 22.27861405 46.0625 28.23828125 C45.17401864 33.81211356 42.47317858 37.46432142 38.5625 41.375 C34.23057611 40.61501335 30.05990121 39.5120709 25.8203125 38.34375 C18.14573897 36.30497771 10.90233806 35.00165263 2.9375 35 C2.204104 34.9985498 1.47070801 34.99709961 0.71508789 34.99560547 C-3.98677871 35.09157293 -7.9696992 35.90918609 -12.4375 37.375 C-12.4990942 40.78636476 -12.4990942 40.78636476 -11.4375 44.375 C-5.76254634 47.44861065 0.45494001 48.72289054 6.6875 50.25 C22.03623659 54.1681578 38.08319682 58.32048366 47.4140625 72.34375 C52.78630546 81.84567632 52.91899387 92.98663006 50.9765625 103.56640625 C47.96129621 113.28994847 40.55976528 120.87212342 32 126.1328125 C12.8423135 135.89586427 -14.01774532 136.60214501 -34.4375 130.375 C-42.23225217 127.48155328 -50.20163451 123.88480137 -54.4375 116.375 C-56.895805 110.71021022 -56.90026749 105.30939216 -55.4375 99.375 C-53.61749438 95.55044274 -51.42901881 92.36651881 -48.4375 89.375 C-43.56080108 89.72744579 -39.29685746 91.49749334 -34.8125 93.3125 C-22.35770374 98.14450893 -8.99626485 100.87262335 3.8828125 96.12890625 C5.5605573 95.49546223 5.5605573 95.49546223 6.5625 94.375 C6.97952122 91.4592309 6.97952122 91.4592309 6.5625 88.375 C3.50077107 85.37491045 0.36785534 84.63194448 -3.75 83.7265625 C-4.99136719 83.44296875 -6.23273438 83.159375 -7.51171875 82.8671875 C-8.82003793 82.57688481 -10.12863396 82.28782708 -11.4375 82 C-26.81013115 78.61520048 -43.40245688 74.50398434 -52.4375 60.375 C-57.65407688 48.79186603 -58.66049266 39.6531345 -54.69140625 27.59375 C-50.56343545 16.99733898 -43.28621868 10.56411132 -33.1875 5.625 C-22.3058194 1.11832482 -11.70263395 -0.11210613 0 0 Z " fill="#DB2C59" transform="translate(496.4375,33.625)"/>
<path d="M0 0 C7.46881325 3.79653169 11.56789437 9.97646513 14.3125 17.6875 C14.91916279 20.61051162 15.05547101 23.03986493 15 26 C15.75023437 25.39671875 16.50046875 24.7934375 17.2734375 24.171875 C24.59325981 18.45614473 31.26859817 13.66866355 40.75 12.5625 C44.52214246 13.07028841 46.8488351 13.85147848 50 16 C52.48598501 19.36810872 53.24532517 22.02137898 53 26.125 C50.22629701 43.40285821 37.88318786 57.01019969 26 69 C25.20335937 69.80953125 24.40671875 70.6190625 23.5859375 71.453125 C17.69728136 77.0712775 11.64170654 80.75991173 3.375 81.1875 C-4.87423218 78.28499238 -9.37086189 71.76666227 -13.4609375 64.32421875 C-20.24329582 49.67501334 -23.05233988 30.5876168 -18 15 C-17.731875 14.14535156 -17.46375 13.29070312 -17.1875 12.41015625 C-14.3363768 4.32009418 -9.77674194 -2.5496569 0 0 Z " fill="#DA2C59" transform="translate(303,125)"/>
<path d="M0 0 C2.9081286 1.6404828 3.69623666 3.02198741 4.67578125 6.17578125 C6.73204896 15.17020395 6.2346723 23.49144615 4.25 32.4375 C4.06735596 33.27007324 3.88471191 34.10264648 3.6965332 34.96044922 C1.50009043 44.6210186 -1.29136361 54.22066563 -9 61 C-13.01764334 62.82959594 -16.29397538 62.53415467 -20.4453125 61.234375 C-31.6925909 56.22774951 -39.08556647 47.51980577 -45 37 C-45.41121094 36.35675781 -45.82242187 35.71351562 -46.24609375 35.05078125 C-49.9153768 28.85466591 -50.99225281 21.11192186 -51 14 C-49.6768924 10.66514985 -48.84677262 8.61583463 -45.9375 6.5 C-41.24489712 5.70125908 -37.41324663 6.19025138 -33 8 C-29.36111066 10.71802755 -26.15458931 13.73802041 -23 17 C-20.88649372 14.24869005 -18.9811064 11.42963821 -17.125 8.5 C-12.43628514 1.54144273 -8.57136766 -1.50881753 0 0 Z " fill="#DA2C59" transform="translate(346,65)"/>
<path d="M0 0 C4.97045253 1.43216429 6.95044615 3.77944455 9.6875 8.0625 C11.1927105 11.00301958 12.49962165 13.98100381 13.6875 17.0625 C14.64849609 16.43021484 14.64849609 16.43021484 15.62890625 15.78515625 C24.84146777 9.9500763 24.84146777 9.9500763 30.6875 10.0625 C36.2737069 12.23491379 36.2737069 12.23491379 37.6875 15.0625 C37.99558338 25.27326343 33.05434106 32.95630973 26.375 40.25 C12.76682851 54.69165195 12.76682851 54.69165195 5.25 55.375 C1.2450142 55.02368546 -0.28648483 54.69035528 -3.3125 52.0625 C-9.21308453 43.58040974 -11.88714158 34.51072873 -11.8125 24.25 C-11.80968018 23.38068848 -11.80686035 22.51137695 -11.80395508 21.61572266 C-11.62319052 14.38379624 -10.34960514 8.22619292 -6.3125 2.0625 C-3.3125 0.0625 -3.3125 0.0625 0 0 Z " fill="#DB2C59" transform="translate(379.3125,68.9375)"/>
<path d="M0 0 C3.5 0.375 3.5 0.375 5.375 1.625 C8.68067557 6.76716199 7.99227681 13.55680146 6.80078125 19.33984375 C6.48531669 20.66745801 6.15557857 21.99175226 5.8125 23.3125 C5.63388428 24.00762695 5.45526855 24.70275391 5.27124023 25.41894531 C3.42888706 32.20564553 0.9517136 37.79755749 -3.9375 42.9375 C-7.17041877 44.75108858 -8.84066755 44.97244203 -12.5 44.375 C-20.96122358 40.14438821 -27.02744117 31.9452101 -30.5859375 23.3515625 C-32.18138094 18.15614412 -33.13999177 12.79695278 -32.5 7.375 C-30.7421875 4.5 -30.7421875 4.5 -28.5 2.375 C-23.47145301 2.21536359 -21.54085425 2.49605641 -17.6875 5.75 C-16.965625 6.61625 -16.24375 7.4825 -15.5 8.375 C-14.50831805 9.38324943 -13.51007842 10.38518103 -12.5 11.375 C-12.10167969 10.83230469 -11.70335937 10.28960937 -11.29296875 9.73046875 C-10.76316406 9.01503906 -10.23335938 8.29960937 -9.6875 7.5625 C-9.16542969 6.85480469 -8.64335937 6.14710937 -8.10546875 5.41796875 C-4.20151368 0.45016218 -4.20151368 0.45016218 0 0 Z " fill="#DA2C59" transform="translate(372.5,16.625)"/>
<path d="M0 0 C4.08237973 0.09071955 5.73002661 0.77110952 8.875 3.4375 C11 6 11 6 11 8 C11.66 8 12.32 8 13 8 C13.3403125 7.1028125 13.3403125 7.1028125 13.6875 6.1875 C15.40076988 3.3320502 16.9669232 2.34019673 20 1 C23.4010144 1.23728007 24.569534 1.569534 27 4 C27.850102 12.89065005 23.49926064 21.0974369 18.48046875 28.12890625 C17 29.8125 17 29.8125 14 32 C9.94586235 32.24821251 8.48096349 31.40080291 5.375 28.8125 C-0.53386345 21.81516171 -3.47785276 15.80917846 -2.75 6.625 C-2.29411765 2.29411765 -2.29411765 2.29411765 0 0 Z " fill="#D92C59" transform="translate(367,134)"/>
<path d="M0 0 C0.69940704 -0.00358521 1.39881409 -0.00717041 2.11941528 -0.01086426 C9.83843862 -0.03211539 17.08431342 0.2338457 24.5625 2.3125 C24.5625 2.6425 24.5625 2.9725 24.5625 3.3125 C22.93759046 3.33948189 21.31255367 3.35888757 19.6875 3.375 C18.33011719 3.39240234 18.33011719 3.39240234 16.9453125 3.41015625 C14.5625 3.3125 14.5625 3.3125 12.5625 2.3125 C8.06750966 2.06504263 3.56351706 2.12727784 -0.9375 2.125 C-2.18015625 2.11275391 -3.4228125 2.10050781 -4.703125 2.08789062 C-17.14351248 1.87481433 -17.14351248 1.87481433 -28.4375 6.3125 C-31.625 5.9375 -31.625 5.9375 -34.4375 5.3125 C-34.4375 6.9625 -34.4375 8.6125 -34.4375 10.3125 C-33.7775 10.3125 -33.1175 10.3125 -32.4375 10.3125 C-32.4375 10.9725 -32.4375 11.6325 -32.4375 12.3125 C-33.7575 11.9825 -35.0775 11.6525 -36.4375 11.3125 C-36.4375 10.3225 -36.4375 9.3325 -36.4375 8.3125 C-37.4275 8.6425 -38.4175 8.9725 -39.4375 9.3125 C-39.746875 10.1375 -40.05625 10.9625 -40.375 11.8125 C-40.725625 12.6375 -41.07625 13.4625 -41.4375 14.3125 C-42.08332031 14.44527344 -42.72914062 14.57804687 -43.39453125 14.71484375 C-45.58907453 15.10331741 -45.58907453 15.10331741 -46.484375 17.09765625 C-48.1149508 22.37891009 -48.7389814 26.785341 -48.4375 32.3125 C-50.91466704 27.94044821 -50.96254121 24.23788658 -50.4375 19.3125 C-48.49972649 12.85325497 -45.2175728 9.56600494 -39.609375 6.22265625 C-27.23580942 -0.03496757 -13.51934925 0.02828596 0 0 Z " fill="#C93757" transform="translate(62.4375,33.6875)"/>
<path d="M0 0 C0 0.66 0 1.32 0 2 C17.325 1.505 17.325 1.505 35 1 C35 0.34 35 -0.32 35 -1 C38.96 -0.67 42.92 -0.34 47 0 C35.14653413 7.90231058 11.19208937 5.41882113 -2.16455078 2.92260742 C-4.79757756 2.35501473 -7.40445166 1.71955796 -10 1 C-10 0.67 -10 0.34 -10 0 C-3.375 -1.125 -3.375 -1.125 0 0 Z " fill="#BA3456" transform="translate(47,163)"/>
<path d="M0 0 C3.34795745 3.34795745 2.48770138 8.04076631 2.51513672 12.55078125 C2.28263121 23.87861705 0.3798315 39.43025275 -6 49 C-5.34 43.72 -4.68 38.44 -4 33 C-3.34 33 -2.68 33 -2 33 C-1.95875 31.72125 -1.9175 30.4425 -1.875 29.125 C-1.84019531 28.04605469 -1.84019531 28.04605469 -1.8046875 26.9453125 C-1.81668311 24.76136355 -1.81668311 24.76136355 -4 23 C-3.01 23 -2.02 23 -1 23 C-0.67 15.41 -0.34 7.82 0 0 Z " fill="#B92E5B" transform="translate(269,47)"/>
<path d="M0 0 C1.92102539 -0.01836914 1.92102539 -0.01836914 3.88085938 -0.03710938 C10.81481833 -0.04781544 16.99554279 0.34119119 23.6875 2.1875 C23.6875 2.5175 23.6875 2.8475 23.6875 3.1875 C20.0575 3.1875 16.4275 3.1875 12.6875 3.1875 C12.6875 2.5275 12.6875 1.8675 12.6875 1.1875 C8.70781827 1.29856089 4.72898389 1.42890233 0.75 1.5625 C-0.92545898 1.60890625 -0.92545898 1.60890625 -2.63476562 1.65625 C-10.73917666 1.94144922 -18.00276166 2.83508312 -25.5625 5.8125 C-28.8621859 7.02238483 -30.87310638 7.50994315 -34.3125 7.1875 C-31.8599195 4.7349195 -29.85024752 4.20046965 -26.5625 3.125 C-25.53640625 2.78339844 -24.5103125 2.44179688 -23.453125 2.08984375 C-15.67032613 -0.14625891 -8.03642477 0.00400819 0 0 Z " fill="#BC3557" transform="translate(496.3125,33.8125)"/>
<path d="M0 0 C0.80566406 0.00322266 1.61132812 0.00644531 2.44140625 0.00976562 C3.70404297 0.02233398 3.70404297 0.02233398 4.9921875 0.03515625 C6.26642578 0.04192383 6.26642578 0.04192383 7.56640625 0.04882812 C9.66669659 0.06062751 11.7669508 0.07856319 13.8671875 0.09765625 C10.83486228 2.1192064 9.90603553 2.38369596 6.4453125 2.625 C5.58421875 2.69525391 4.723125 2.76550781 3.8359375 2.83789062 C2.0392605 2.96825296 0.24238467 3.09590645 -1.5546875 3.22070312 C-7.0221027 3.67225304 -11.28449993 4.46408332 -16.1328125 7.09765625 C-18.0779125 10.01530625 -18.58557567 11.7230291 -19.1328125 15.09765625 C-19.7928125 15.09765625 -20.4528125 15.09765625 -21.1328125 15.09765625 C-21.1328125 13.11765625 -21.1328125 11.13765625 -21.1328125 9.09765625 C-20.4728125 9.09765625 -19.8128125 9.09765625 -19.1328125 9.09765625 C-19.4628125 7.77765625 -19.7928125 6.45765625 -20.1328125 5.09765625 C-18.1528125 4.76765625 -16.1728125 4.43765625 -14.1328125 4.09765625 C-13.8028125 3.10765625 -13.4728125 2.11765625 -13.1328125 1.09765625 C-12.0190625 1.11828125 -10.9053125 1.13890625 -9.7578125 1.16015625 C-6.18149935 1.09849568 -3.58174632 -0.02522357 0 0 Z " fill="#BD3359" transform="translate(624.1328125,110.90234375)"/>
<path d="M0 0 C1.1875 1.625 1.1875 1.625 2 4 C1.52691406 4.89203125 1.05382812 5.7840625 0.56640625 6.703125 C-1.22977823 10.48362301 -1.33980145 12.96719264 -1.25 17.125 C-1.23453125 18.32382813 -1.2190625 19.52265625 -1.203125 20.7578125 C-1.03905064 23.37669173 -0.64676263 25.49033988 0 28 C-0.27050453 30.00946222 -0.59367909 32.01354224 -1 34 C-4.67462491 28.48806263 -5.65365722 21.53657223 -5 15 C-2.17391304 4.34782609 -2.17391304 4.34782609 0 0 Z " fill="#CC374D" transform="translate(444,56)"/>
<path d="M0 0 C2.1480689 -0.00218868 4.29562489 -0.02040227 6.44360352 -0.03930664 C13.64680169 -0.06777778 20.26069706 0.21832043 27.21899414 2.18530273 C27.21899414 2.51530273 27.21899414 2.84530273 27.21899414 3.18530273 C25.5940846 3.21228463 23.96904781 3.2316903 22.34399414 3.24780273 C20.98661133 3.26520508 20.98661133 3.26520508 19.60180664 3.28295898 C17.21899414 3.18530273 17.21899414 3.18530273 15.21899414 2.18530273 C13.26649885 2.08779755 11.31064025 2.05453224 9.35571289 2.05249023 C7.5584375 2.05055664 7.5584375 2.05055664 5.72485352 2.04858398 C3.83476563 2.05438477 3.83476563 2.05438477 1.90649414 2.06030273 C0.68897461 2.05643555 -0.52854492 2.05256836 -1.78295898 2.04858398 C-9.82673379 2.05713664 -17.77151845 2.44761995 -25.78100586 3.18530273 C-17.97324082 -0.99390456 -8.63407528 -0.00098394 0 0 Z " fill="#B63256" transform="translate(59.781005859375,33.814697265625)"/>
<path d="M0 0 C12.86058739 0.32595959 25.6928356 4.92076616 35 14 C35 14.99 35 15.98 35 17 C34.34 16.34 33.68 15.68 33 15 C30.68351201 13.96157435 28.35096976 12.9578025 26 12 C26 11.34 26 10.68 26 10 C18.47990126 4.74416456 8.87164297 2.77432859 0 1 C0 0.67 0 0.34 0 0 Z " fill="#BA325A" transform="translate(635,35)"/>
<path d="M0 0 C0.33 0.99 0.66 1.98 1 3 C1.99 3.33 2.98 3.66 4 4 C3.34773438 4.495 2.69546875 4.99 2.0234375 5.5 C-0.72259478 8.8927812 -0.51842961 11.83299226 -0.375 16 C-0.37306641 17.06734375 -0.37306641 17.06734375 -0.37109375 18.15625 C-0.30816669 21.90390603 -0.07021327 24.82015241 2 28 C2.66 28 3.32 28 4 28 C3.01 31.465 3.01 31.465 2 35 C-2.36214505 30.63785495 -2.2557741 24.41052737 -2.2734375 18.56835938 C-2.26570313 17.70017578 -2.25796875 16.83199219 -2.25 15.9375 C-2.25773437 15.06544922 -2.26546875 14.19339844 -2.2734375 13.29492188 C-2.25881054 8.46436825 -1.87600946 4.53368953 0 0 Z " fill="#C82F58" transform="translate(370,77)"/>
<path d="M0 0 C0.66 0.33 1.32 0.66 2 1 C2.625 3.5625 2.625 3.5625 3 6 C1.35 5.67 -0.3 5.34 -2 5 C-2.65104151 7.35283375 -3.29592122 9.70708449 -3.9375 12.0625 C-4.11990234 12.71927734 -4.30230469 13.37605469 -4.49023438 14.05273438 C-5.65689649 18.3587782 -6.45292805 22.57159654 -7 27 C-7.66 27 -8.32 27 -9 27 C-8.50308793 21.33520242 -7.72129617 15.72769586 -6.75 10.125 C-6.53859375 8.84882812 -6.3271875 7.57265625 -6.109375 6.2578125 C-5 3 -5 3 -2.515625 0.9921875 C-1.68546875 0.66476563 -0.8553125 0.33734375 0 0 Z " fill="#C53955" transform="translate(234,41)"/>
<path d="M0 0 C3.80909895 0.32417863 5.78372163 0.85581442 9 3 C8.67 3.66 8.34 4.32 8 5 C5.03 4.67 2.06 4.34 -1 4 C-0.34 9.94 0.32 15.88 1 22 C-1.8736033 19.1263967 -2.47663857 15.91551883 -3 12 C-2.90721649 2.90721649 -2.90721649 2.90721649 0 0 Z " fill="#CA2D56" transform="translate(367,134)"/>
<path d="M0 0 C0.66 0.33 1.32 0.66 2 1 C0.62736683 3.74526635 -1.40592747 4.44355648 -4 6 C-4.33 6.66 -4.66 7.32 -5 8 C-5.66 8 -6.32 8 -7 8 C-7 8.66 -7 9.32 -7 10 C-7.66 10 -8.32 10 -9 10 C-9 10.66 -9 11.32 -9 12 C-8.34 12 -7.68 12 -7 12 C-6.67 12.99 -6.34 13.98 -6 15 C-8.66666667 16.33333333 -11.33333333 17.66666667 -14 19 C-11.53902517 10.38658811 -6.74268915 5.53162362 0 0 Z " fill="#C73A5A" transform="translate(20,94)"/>
<path d="M0 0 C2.64 0.33 5.28 0.66 8 1 C5.02187403 2.98541731 2.50156031 3.98825276 -0.875 5.125 C-1.90367187 5.47820312 -2.93234375 5.83140625 -3.9921875 6.1953125 C-6.82719431 6.95376887 -9.08640824 7.16126892 -12 7 C-12.33 6.34 -12.66 5.68 -13 5 C-10.66376225 3.17481425 -8.91101935 1.98989627 -5.88671875 2.0234375 C-3.91462383 2.28264713 -1.95536303 2.63544079 0 3 C0 2.01 0 1.02 0 0 Z " fill="#C3325A" transform="translate(588,68)"/>
<path d="M0 0 C0.66 0.33 1.32 0.66 2 1 C2 8.26 2 15.52 2 23 C-1.27543542 18.08684687 -1.13716075 13.56283673 -1.125 7.75 C-1.12757813 6.50734375 -1.13015625 5.2646875 -1.1328125 3.984375 C-1 1 -1 1 0 0 Z " fill="#C93A4F" transform="translate(563,117)"/>
<path d="M0 0 C4.23322844 0.62045463 7.52290295 2.10523559 11.3125 4.0625 C12.38113281 4.61035156 13.44976562 5.15820312 14.55078125 5.72265625 C15.35902344 6.14417969 16.16726562 6.56570312 17 7 C16.01 7.495 16.01 7.495 15 8 C14.67 8.66 14.34 9.32 14 10 C11.525 9.01 11.525 9.01 9 8 C9 7.01 9 6.02 9 5 C8.071875 4.731875 7.14375 4.46375 6.1875 4.1875 C3.23759634 3.08851629 1.94384814 2.37581439 0 0 Z " fill="#C53158" transform="translate(89,37)"/>
<path d="M0 0 C2.1939026 3.2908539 2.20490753 4.1494598 2.0625 7.9375 C1.97186781 10.5500713 1.91379373 12.67528971 2.5859375 15.20703125 C2.72257813 15.79871094 2.85921875 16.39039063 3 17 C1.5625 18.75 1.5625 18.75 0 20 C-1.37004923 13.14975385 -1.37004923 6.85024615 0 0 Z " fill="#BE4456" transform="translate(5,115)"/>
<path d="M0 0 C0 0.33 0 0.66 0 1 C-2.97 1 -5.94 1 -9 1 C-9 1.66 -9 2.32 -9 3 C-14.28 3.66 -19.56 4.32 -25 5 C-25 4.34 -25 3.68 -25 3 C-16.6245706 0.38267831 -8.73209978 -0.16104282 0 0 Z " fill="#C03355" transform="translate(57,86)"/>
<path d="M0 0 C0.33 0.99 0.66 1.98 1 3 C-0.97845068 6.39162974 -3.0755255 9.36797295 -6 12 C-6.66 11.67 -7.32 11.34 -8 11 C-8 9.02 -8 7.04 -8 5 C-5.03 5.495 -5.03 5.495 -2 6 C-1.855625 5.195625 -1.71125 4.39125 -1.5625 3.5625 C-1 1 -1 1 0 0 Z " fill="#C82C5A" transform="translate(122,142)"/>
<path d="M0 0 C2.0703125 0.3125 2.0703125 0.3125 3.875 1 C4.535 1.99 5.195 2.98 5.875 4 C4.885 4 3.895 4 2.875 4 C2.875 3.34 2.875 2.68 2.875 2 C0.565 2 -1.745 2 -4.125 2 C-3.795 2.99 -3.465 3.98 -3.125 5 C-4.115 5.66 -5.105 6.32 -6.125 7 C-7.31732613 9.05003955 -7.31732613 9.05003955 -8.125 11 C-8.46297882 7.36672764 -8.30066694 5.34401443 -6.625 2.0625 C-3.84903531 -0.22767087 -3.39959565 -0.30287307 0 0 Z " fill="#C82F5A" transform="translate(348.125,19)"/>
<path d="M0 0 C3.96 0.33 7.92 0.66 12 1 C8.46939899 3.35373401 5.41404244 3.65778415 1.3125 4.125 C0.61060547 4.21136719 -0.09128906 4.29773438 -0.81445312 4.38671875 C-2.54211145 4.59826875 -4.2709566 4.800086 -6 5 C-6.33 4.34 -6.66 3.68 -7 3 C-3.535 2.505 -3.535 2.505 0 2 C0 1.34 0 0.68 0 0 Z " fill="#C52F53" transform="translate(82,162)"/>
<path d="M0 0 C6.93 0 13.86 0 21 0 C18 3 18 3 16.0546875 3.36328125 C10.49551186 3.23376641 5.37551056 2.42330303 0 1 C0 0.67 0 0.34 0 0 Z " fill="#BE3957" transform="translate(476,132)"/>
<path d="M0 0 C3.73884332 2.65654657 5.64978174 4.58110387 7 9 C6.01 9.495 6.01 9.495 5 10 C4.01 11.485 4.01 11.485 3 13 C3 12.34 3 11.68 3 11 C2.34 10.67 1.68 10.34 1 10 C1.99 8.35 2.98 6.7 4 5 C2.35 5.33 0.7 5.66 -1 6 C-0.67 4.02 -0.34 2.04 0 0 Z " fill="#CA2E59" transform="translate(111,49)"/>
<path d="M0 0 C3.88980024 7.00781472 1.70350347 14.577592 0 22 C-0.33 22 -0.66 22 -1 22 C-1.19412181 20.52168779 -1.38012131 19.04230684 -1.5625 17.5625 C-1.66691406 16.73878906 -1.77132813 15.91507813 -1.87890625 15.06640625 C-1.91886719 14.38449219 -1.95882813 13.70257813 -2 13 C-1.67 12.67 -1.34 12.34 -1 12 C-0.76572222 9.98405418 -0.58663876 7.961526 -0.4375 5.9375 C-0.35371094 4.83277344 -0.26992188 3.72804688 -0.18359375 2.58984375 C-0.12300781 1.73519531 -0.06242187 0.88054688 0 0 Z " fill="#C32D56" transform="translate(378,20)"/>
<path d="M0 0 C2.55270089 2.55270089 2.91363069 4.46726975 3.11352539 8.01464844 C3.10567017 9.05153809 3.10567017 9.05153809 3.09765625 10.109375 C3.09443359 10.86347656 3.09121094 11.61757812 3.08789062 12.39453125 C3.07951172 13.17183594 3.07113281 13.94914062 3.0625 14.75 C3.05798828 15.54277344 3.05347656 16.33554688 3.04882812 17.15234375 C3.03708565 19.10159508 3.01915146 21.05080738 3 23 C2.67 23 2.34 23 2 23 C2 19.7 2 16.4 2 13 C1.34 13 0.68 13 0 13 C0 8.71 0 4.42 0 0 Z " fill="#C02E5A" transform="translate(545,111)"/>
<path d="M0 0 C0.66 0 1.32 0 2 0 C2.28875 1.134375 2.5775 2.26875 2.875 3.4375 C3.24625 4.613125 3.6175 5.78875 4 7 C4.66 7.33 5.32 7.66 6 8 C7.11421833 11.64653273 6.94296589 14.33291043 6 18 C3.87399696 14.81099544 2.97863761 12.09585431 1.875 8.4375 C1.52179688 7.28121094 1.16859375 6.12492187 0.8046875 4.93359375 C0 2 0 2 0 0 Z " fill="#C93A52" transform="translate(151,85)"/>
<path d="M0 0 C4.97166604 0.473492 8.10996636 1.85092515 12 5 C12 5.99 12 6.98 12 8 C8.5625 6.6875 8.5625 6.6875 5 5 C4.67 4.01 4.34 3.02 4 2 C2.68 2 1.36 2 0 2 C0 1.34 0 0.68 0 0 Z " fill="#C22D56" transform="translate(256,39)"/>
<path d="M0 0 C0.66 0 1.32 0 2 0 C2.66 0.66 3.32 1.32 4 2 C4.99 2 5.98 2 7 2 C8.52299523 4.93720508 9.80100302 7.9168649 11 11 C7.584241 9.55661511 5.63973737 7.75105832 3.25 4.9375 C2.63640625 4.22464844 2.0228125 3.51179688 1.390625 2.77734375 C0 1 0 1 0 0 Z " fill="#C43157" transform="translate(347,48)"/>
<path d="M0 0 C1.31052767 4.30422506 0.45785552 7.9370534 -0.4375 12.25 C-0.58509766 12.99507812 -0.73269531 13.74015625 -0.88476562 14.5078125 C-1.2488694 16.34007665 -1.62341409 18.17026053 -2 20 C-2.99 20.33 -3.98 20.66 -5 21 C-3.68882339 13.88879511 -1.98279484 6.95300057 0 0 Z " fill="#C0435B" transform="translate(219,89)"/>
<path d="M0 0 C0.66 0 1.32 0 2 0 C2 0.99 2 1.98 2 3 C2.66 3 3.32 3 4 3 C4 4.65 4 6.3 4 8 C4.66 8 5.32 8 6 8 C6 9.32 6 10.64 6 12 C6.66 12 7.32 12 8 12 C7.67 13.32 7.34 14.64 7 16 C5.82558465 13.89983377 4.66035988 11.79541245 3.5 9.6875 C3.16613281 9.09259766 2.83226562 8.49769531 2.48828125 7.88476562 C0.93174886 5.04171156 0 3.29339012 0 0 Z " fill="#C4415B" transform="translate(167,129)"/>
<path d="M0 0 C0 0.33 0 0.66 0 1 C-0.60328125 1.02578125 -1.2065625 1.0515625 -1.828125 1.078125 C-7.10535339 1.40331983 -7.10535339 1.40331983 -11.5625 4.0625 C-12.036875 4.701875 -12.51125 5.34125 -13 6 C-14.32 5.34 -15.64 4.68 -17 4 C-10.67744756 0.23078604 -7.43946693 -1.52170914 0 0 Z " fill="#C23358" transform="translate(413,80)"/>
<path d="M0 0 C1.1875 1.625 1.1875 1.625 2 4 C0.6875 6.9375 0.6875 6.9375 -1 10 C-1.69907414 12.73572585 -1.69907414 12.73572585 -2 15 C-2.66 15 -3.32 15 -4 15 C-3.50341703 9.33895411 -2.45489316 5.12325529 0 0 Z " fill="#C53C54" transform="translate(444,56)"/>
<path d="M0 0 C0.66 0 1.32 0 2 0 C2 1.32 2 2.64 2 4 C2.99 4.33 3.98 4.66 5 5 C4.34 5 3.68 5 3 5 C3 5.66 3 6.32 3 7 C3.99 7.33 4.98 7.66 6 8 C6 10.31 6 12.62 6 15 C3.75848118 12.75848118 3.03698675 10.9932888 1.875 8.0625 C1.52179688 7.18722656 1.16859375 6.31195313 0.8046875 5.41015625 C0 3 0 3 0 0 Z " fill="#C63D54" transform="translate(161,114)"/>
<path d="M0 0 C0 0.99 0 1.98 0 3 C-2.34171739 5.34171739 -3.23060454 5.391923 -6.4375 5.75 C-7.61119141 5.89695312 -7.61119141 5.89695312 -8.80859375 6.046875 C-11 6 -11 6 -14 4 C-11.36 3.67 -8.72 3.34 -6 3 C-6 2.34 -6 1.68 -6 1 C-5.34 1 -4.68 1 -4 1 C-4 1.66 -4 2.32 -4 3 C-2.68 2.01 -1.36 1.02 0 0 Z " fill="#C03056" transform="translate(339,121)"/>
<path d="M0 0 C1.96482034 2.94723051 2.7561217 5.11977826 3.6875 8.5 C3.95949219 9.4590625 4.23148438 10.418125 4.51171875 11.40625 C5 14 5 14 4 17 C0.5246131 11.02667877 -0.57374185 6.88490225 0 0 Z " fill="#BB305F" transform="translate(193,74)"/>
<path d="M0 0 C0.92538169 3.70152678 1.08174162 4.63458162 0 8 C-2.97 7.505 -2.97 7.505 -6 7 C-4.02 4.69 -2.04 2.38 0 0 Z " fill="#CA3657" transform="translate(171,175)"/>
<path d="M0 0 C2.97 0.495 2.97 0.495 6 1 C5.67 1.99 5.34 2.98 5 4 C6.65 4.33 8.3 4.66 10 5 C10 5.66 10 6.32 10 7 C10.99 7 11.98 7 13 7 C13 7.66 13 8.32 13 9 C7.50151887 7.65890704 3.907435 4.96523729 0 1 C0 0.67 0 0.34 0 0 Z " fill="#C23D5B" transform="translate(444,152)"/>
<path d="M0 0 C-2.97 2.475 -2.97 2.475 -6 5 C-6.99 4.34 -7.98 3.68 -9 3 C-9 2.34 -9 1.68 -9 1 C-5.57367167 -0.61798838 -3.61944899 -1.34053666 0 0 Z " fill="#C63557" transform="translate(593,90)"/>
<path d="M0 0 C2.41930709 2.41930709 2.79442204 4.15707218 3.6875 7.4375 C3.95949219 8.40558594 4.23148438 9.37367187 4.51171875 10.37109375 C5 13 5 13 4 16 C1.43383368 12.15075052 1.44902324 9.5650696 1 5 C0.01 4.67 -0.98 4.34 -2 4 C-1.34 2.68 -0.68 1.36 0 0 Z " fill="#BB2F57" transform="translate(187,54)"/>
<path d="M0 0 C3.72 1.44 3.72 1.44 4.875 3.75 C5.0455723 6.82030146 4.09788947 9.15840374 3 12 C0.60926555 8.17482487 0.44033448 4.40334476 0 0 Z " fill="#C73B56" transform="translate(144,58)"/>
<path d="M0 0 C0 3.39593478 -0.52165948 4.06619881 -2.5 6.6875 C-2.9640625 7.31011719 -3.428125 7.93273437 -3.90625 8.57421875 C-4.2671875 9.04472656 -4.628125 9.51523438 -5 10 C-6.37462236 4.94561934 -6.37462236 4.94561934 -5 2 C-2.4375 0.75 -2.4375 0.75 0 0 Z " fill="#C2275C" transform="translate(223,182)"/>
<path d="M0 0 C-4.64203897 2.53309233 -8.65155992 4.46515599 -14 5 C-14 4.34 -14 3.68 -14 3 C-12.42274653 2.29866401 -10.83788667 1.614417 -9.25 0.9375 C-7.92742187 0.36322266 -7.92742187 0.36322266 -6.578125 -0.22265625 C-3.84743691 -1.04600008 -2.63098653 -0.9773992 0 0 Z " fill="#BC3357" transform="translate(109,158)"/>
<path d="M0 0 C1.1446875 0.2475 1.1446875 0.2475 2.3125 0.5 C5.03596236 1.09145396 5.03596236 1.09145396 8 1 C8 2.32 8 3.64 8 5 C8.99 5.33 9.98 5.66 11 6 C11 6.66 11 7.32 11 8 C6.40378078 6.5129879 3.53027653 4.20187872 0 1 C0 0.67 0 0.34 0 0 Z " fill="#C6375B" transform="translate(177,149)"/>
<path d="M0 0 C1.32 0.33 2.64 0.66 4 1 C2.68775452 4.93673644 1.08089673 7.22719294 -2 10 C-2.125 7.625 -2.125 7.625 -2 5 C-1.34 4.34 -0.68 3.68 0 3 C0 2.01 0 1.02 0 0 Z " fill="#CC2554" transform="translate(227,170)"/>
<path d="M0 0 C3.63 0.66 7.26 1.32 11 2 C11 2.66 11 3.32 11 4 C5.375 5.125 5.375 5.125 2 4 C1.34 2.68 0.68 1.36 0 0 Z " fill="#C23256" transform="translate(464,129)"/>
<path d="M0 0 C1.60294922 0.01353516 1.60294922 0.01353516 3.23828125 0.02734375 C4.04652344 0.03894531 4.85476562 0.05054687 5.6875 0.0625 C5.6875 0.3925 5.6875 0.7225 5.6875 1.0625 C-0.33482181 2.52869907 -5.21617577 3.38778788 -11.3125 2.0625 C-11.3125 1.7325 -11.3125 1.4025 -11.3125 1.0625 C-7.47525828 0.15836327 -3.93747726 -0.04326898 0 0 Z " fill="#BE3455" transform="translate(70.3125,83.9375)"/>
<path d="M0 0 C3 2 3 2 3.6875 5.125 C3.790625 6.07375 3.89375 7.0225 4 8 C1.35261084 9.4606285 0.10551666 10 -3 10 C-2.67 9.01 -2.34 8.02 -2 7 C0.0625 6.3125 0.0625 6.3125 2 6 C1.34 4.02 0.68 2.04 0 0 Z " fill="#C92F57" transform="translate(347,67)"/>
<path d="M0 0 C0.33 0.66 0.66 1.32 1 2 C-0.86513897 3.86513897 -2.73737683 5.71982023 -4.625 7.5625 C-7.00641642 9.75959819 -7.00641642 9.75959819 -8 12 C-8.66 12 -9.32 12 -10 12 C-8.62968895 6.34746692 -4.32310587 3.4886459 0 0 Z " fill="#BD4258" transform="translate(455,44)"/>
<path d="M0 0 C3.91402949 1.26941497 5.79072873 2.51167694 8 6 C7.67 6.66 7.34 7.32 7 8 C6.01 7.34 5.02 6.68 4 6 C4 5.34 4 4.68 4 4 C2.35 4 0.7 4 -1 4 C-0.67 2.68 -0.34 1.36 0 0 Z " fill="#CD2E5C" transform="translate(537,102)"/>
<path d="M0 0 C8.19256018 -0.4726477 8.19256018 -0.4726477 11.5625 1.5 C12.036875 1.995 12.51125 2.49 13 3 C12.67 3.99 12.34 4.98 12 6 C10.948125 5.360625 9.89625 4.72125 8.8125 4.0625 C5.89171588 2.38245548 3.3828257 1.41003948 0 1 C0 0.67 0 0.34 0 0 Z " fill="#BF3A59" transform="translate(66,68)"/>
<path d="M0 0 C2.97 0.495 2.97 0.495 6 1 C6 1.99 6 2.98 6 4 C5.01 4.66 4.02 5.32 3 6 C2.01 4.02 1.02 2.04 0 0 Z " fill="#CE335D" transform="translate(289,187)"/>
<path d="M0 0 C1.33332095 2.6666419 0.67102033 4.16680303 0 7 C-0.66 7 -1.32 7 -2 7 C-2 8.32 -2 9.64 -2 11 C-2.66 11 -3.32 11 -4 11 C-3.48964169 6.6109185 -2.47785723 3.66291938 0 0 Z " fill="#BE3D51" transform="translate(445,126)"/>
<path d="M0 0 C3.48331435 3.01887244 4.79157144 5.56909529 6 10 C3 9 3 9 1 6 C0.36143342 3.89273028 0 2.20271564 0 0 Z " fill="#BD335B" transform="translate(672,53)"/>
<path d="M0 0 C0.66 1.32 1.32 2.64 2 4 C2.66 4 3.32 4 4 4 C4 4.66 4 5.32 4 6 C-1.75 4.375 -1.75 4.375 -4 1 C-2.68 0.67 -1.36 0.34 0 0 Z " fill="#C73857" transform="translate(170,203)"/>
<path d="M0 0 C0.33 0.99 0.66 1.98 1 3 C-2.63 2.34 -6.26 1.68 -10 1 C-10 0.67 -10 0.34 -10 0 C-3.375 -1.125 -3.375 -1.125 0 0 Z " fill="#BD3A58" transform="translate(47,163)"/>
<path d="M0 0 C1.670625 0.061875 1.670625 0.061875 3.375 0.125 C2.04166667 0.79166667 0.70833333 1.45833333 -0.625 2.125 C-1.264375 2.49625 -1.90375 2.8675 -2.5625 3.25 C-5.03609822 4.29940531 -6.96453538 4.27280359 -9.625 4.125 C-9.955 3.465 -10.285 2.805 -10.625 2.125 C-9.84125 2.16625 -9.0575 2.2075 -8.25 2.25 C-4.3959943 2.06647592 -4.19610231 0.14469318 0 0 Z " fill="#C03355" transform="translate(28.625,70.875)"/>
<path d="M0 0 C0 4.61538462 0 4.61538462 -1 7 C-3.5625 8.25 -3.5625 8.25 -6 9 C-4.68775452 5.06326356 -3.08089673 2.77280706 0 0 Z " fill="#C53A56" transform="translate(573,97)"/>
<path d="M0 0 C0.66 0.33 1.32 0.66 2 1 C-0.475 5.455 -0.475 5.455 -3 10 C-3.33 8.68 -3.66 7.36 -4 6 C-3.34 6 -2.68 6 -2 6 C-2.33 5.01 -2.66 4.02 -3 3 C-2.01 2.01 -1.02 1.02 0 0 Z " fill="#C62E56" transform="translate(413,94)"/>
<path d="M0 0 C0.66 0.33 1.32 0.66 2 1 C2 3.97 2 6.94 2 10 C1.34 10 0.68 10 0 10 C-0.19412181 8.52168779 -0.38012131 7.04230684 -0.5625 5.5625 C-0.66691406 4.73878906 -0.77132813 3.91507812 -0.87890625 3.06640625 C-0.91886719 2.38449219 -0.95882813 1.70257813 -1 1 C-0.67 0.67 -0.34 0.34 0 0 Z " fill="#C9274F" transform="translate(350,78)"/>
<path d="M0 0 C-1.75 5.75 -1.75 5.75 -4 8 C-4.33 5.69 -4.66 3.38 -5 1 C-2 0 -2 0 0 0 Z " fill="#C6315A" transform="translate(375,48)"/>
<path d="M0 0 C0.33 0 0.66 0 1 0 C1.3125 2.25 1.3125 2.25 1 5 C-1.5 7.3125 -1.5 7.3125 -4 9 C-2.25 2.25 -2.25 2.25 0 0 Z " fill="#C43058" transform="translate(291,128)"/>
<path d="M0 0 C0.33 0.66 0.66 1.32 1 2 C2.98 1.67 4.96 1.34 7 1 C4.28817788 3.60334924 3.10866187 3.99456691 -0.75 4.1875 C-1.8225 4.125625 -2.895 4.06375 -4 4 C-3.01 3.67 -2.02 3.34 -1 3 C-0.67 2.01 -0.34 1.02 0 0 Z " fill="#CB335B" transform="translate(385,120)"/>
<path d="M0 0 C2.30143236 3.45214853 2.13833854 4.23479324 1.625 8.1875 C1.51414062 9.08855469 1.40328125 9.98960938 1.2890625 10.91796875 C1.19367187 11.60503906 1.09828125 12.29210937 1 13 C0.67 13 0.34 13 0 13 C-0.83796731 8.34462607 -1.0161692 4.62921525 0 0 Z " fill="#C93E53" transform="translate(5,115)"/>
<path d="M0 0 C2.6855594 2.6855594 3.06049974 5.37621328 4 9 C2.68 8.67 1.36 8.34 0 8 C0 5.33333333 0 2.66666667 0 0 Z " fill="#CA2957" transform="translate(389,79)"/>
<path d="M0 0 C0.33 0 0.66 0 1 0 C1.08131463 1.43655854 1.13933559 2.8744483 1.1875 4.3125 C1.23970703 5.51326172 1.23970703 5.51326172 1.29296875 6.73828125 C0.93801608 9.47851584 0.10633718 10.29171079 -2 12 C-1 3.42857143 -1 3.42857143 0 0 Z " fill="#C14056" transform="translate(222,77)"/>
<path d="M0 0 C1.98 0.99 1.98 0.99 4 2 C4 3.98 4 5.96 4 8 C1.10067643 5.60490662 0.49831724 3.68754757 0 0 Z " fill="#C23C58" transform="translate(571,64)"/>
<path d="M0 0 C0.99 0 1.98 0 3 0 C4.25664978 2.90600261 5 4.79604584 5 8 C0 2.25 0 2.25 0 0 Z " fill="#C43B56" transform="translate(444,92)"/>
<path d="M0 0 C6.875 3.75 6.875 3.75 8 6 C5.03 5.505 5.03 5.505 2 5 C2 4.01 2 3.02 2 2 C1.34 2 0.68 2 0 2 C0 1.34 0 0.68 0 0 Z " fill="#BC325A" transform="translate(528,39)"/>
</svg>
